<svg xmlns="http://www.w3.org/2000/svg" xmlns:svgjs="http://svgjs.com/svgjs" xmlns:xlink="http://www.w3.org/1999/xlink" id="SvgjsSvg1006" width="1014.9" height="572.963" version="1.1"><defs id="SvgjsDefs1007"><marker id="SvgjsMarker1052" markerHeight="12" markerUnits="userSpaceOnUse" markerWidth="16" orient="auto" refX="16" refY="6" viewBox="0 0 16 12"><path id="SvgjsPath1053" fill="#323232" stroke="#323232" stroke-width="2" d="M0,2 L14,6 L0,11 L0,2"/></marker><marker id="SvgjsMarker1056" markerHeight="12" markerUnits="userSpaceOnUse" markerWidth="16" orient="auto" refX="16" refY="6" viewBox="0 0 16 12"><path id="SvgjsPath1057" fill="#323232" stroke="#323232" stroke-width="2" d="M0,2 L14,6 L0,11 L0,2"/></marker><marker id="SvgjsMarker1060" markerHeight="12" markerUnits="userSpaceOnUse" markerWidth="16" orient="auto" refX="16" refY="6" viewBox="0 0 16 12"><path id="SvgjsPath1061" fill="#323232" stroke="#323232" stroke-width="2" d="M0,2 L14,6 L0,11 L0,2"/></marker><marker id="SvgjsMarker1064" markerHeight="12" markerUnits="userSpaceOnUse" markerWidth="16" orient="auto" refX="16" refY="6" viewBox="0 0 16 12"><path id="SvgjsPath1065" fill="#323232" stroke="#323232" stroke-width="2" d="M0,2 L14,6 L0,11 L0,2"/></marker><marker id="SvgjsMarker1068" markerHeight="12" markerUnits="userSpaceOnUse" markerWidth="16" orient="auto" refX="16" refY="6" viewBox="0 0 16 12"><path id="SvgjsPath1069" fill="#323232" stroke="#323232" stroke-width="2" d="M0,2 L14,6 L0,11 L0,2"/></marker><marker id="SvgjsMarker1132" markerHeight="12" markerUnits="userSpaceOnUse" markerWidth="16" orient="auto" refX="16" refY="6" viewBox="0 0 16 12"><path id="SvgjsPath1133" fill="#323232" stroke="#323232" stroke-width="2" d="M0,2 L14,6 L0,11 L0,2"/></marker><marker id="SvgjsMarker1136" markerHeight="12" markerUnits="userSpaceOnUse" markerWidth="16" orient="auto" refX="16" refY="6" viewBox="0 0 16 12"><path id="SvgjsPath1137" fill="#323232" stroke="#323232" stroke-width="2" d="M0,2 L14,6 L0,11 L0,2"/></marker><marker id="SvgjsMarker1140" markerHeight="12" markerUnits="userSpaceOnUse" markerWidth="16" orient="auto" refX="16" refY="6" viewBox="0 0 16 12"><path id="SvgjsPath1141" fill="#323232" stroke="#323232" stroke-width="2" d="M0,2 L14,6 L0,11 L0,2"/></marker><marker id="SvgjsMarker1144" markerHeight="12" markerUnits="userSpaceOnUse" markerWidth="16" orient="auto" refX="16" refY="6" viewBox="0 0 16 12"><path id="SvgjsPath1145" fill="#323232" stroke="#323232" stroke-width="2" d="M0,2 L14,6 L0,11 L0,2"/></marker><marker id="SvgjsMarker1148" markerHeight="12" markerUnits="userSpaceOnUse" markerWidth="16" orient="auto" refX="16" refY="6" viewBox="0 0 16 12"><path id="SvgjsPath1149" fill="#323232" stroke="#323232" stroke-width="2" d="M0,2 L14,6 L0,11 L0,2"/></marker><marker id="SvgjsMarker1152" markerHeight="12" markerUnits="userSpaceOnUse" markerWidth="16" orient="auto" refX="16" refY="6" viewBox="0 0 16 12"><path id="SvgjsPath1153" fill="#323232" stroke="#323232" stroke-width="2" d="M0,2 L14,6 L0,11 L0,2"/></marker><marker id="SvgjsMarker1156" markerHeight="12" markerUnits="userSpaceOnUse" markerWidth="16" orient="auto" refX="16" refY="6" viewBox="0 0 16 12"><path id="SvgjsPath1157" fill="#323232" stroke="#323232" stroke-width="2" d="M0,2 L14,6 L0,11 L0,2"/></marker><marker id="SvgjsMarker1160" markerHeight="12" markerUnits="userSpaceOnUse" markerWidth="16" orient="auto" refX="16" refY="6" viewBox="0 0 16 12"><path id="SvgjsPath1161" fill="#323232" stroke="#323232" stroke-width="2" d="M0,2 L14,6 L0,11 L0,2"/></marker><marker id="SvgjsMarker1218" markerHeight="12" markerUnits="userSpaceOnUse" markerWidth="16" orient="auto" refX="16" refY="6" viewBox="0 0 16 12"><path id="SvgjsPath1219" fill="#323232" stroke="#323232" stroke-width="2" d="M0,2 L14,6 L0,11 L0,2"/></marker><marker id="SvgjsMarker1222" markerHeight="12" markerUnits="userSpaceOnUse" markerWidth="16" orient="auto" refX="16" refY="6" viewBox="0 0 16 12"><path id="SvgjsPath1223" fill="#323232" stroke="#323232" stroke-width="2" d="M0,2 L14,6 L0,11 L0,2"/></marker><marker id="SvgjsMarker1226" markerHeight="12" markerUnits="userSpaceOnUse" markerWidth="16" orient="auto" refX="16" refY="6" viewBox="0 0 16 12"><path id="SvgjsPath1227" fill="#323232" stroke="#323232" stroke-width="2" d="M0,2 L14,6 L0,11 L0,2"/></marker><marker id="SvgjsMarker1230" markerHeight="12" markerUnits="userSpaceOnUse" markerWidth="16" orient="auto" refX="16" refY="6" viewBox="0 0 16 12"><path id="SvgjsPath1231" fill="#323232" stroke="#323232" stroke-width="2" d="M0,2 L14,6 L0,11 L0,2"/></marker><marker id="SvgjsMarker1234" markerHeight="12" markerUnits="userSpaceOnUse" markerWidth="16" orient="auto" refX="16" refY="6" viewBox="0 0 16 12"><path id="SvgjsPath1235" fill="#323232" stroke="#323232" stroke-width="2" d="M0,2 L14,6 L0,11 L0,2"/></marker><marker id="SvgjsMarker1238" markerHeight="12" markerUnits="userSpaceOnUse" markerWidth="16" orient="auto" refX="16" refY="6" viewBox="0 0 16 12"><path id="SvgjsPath1239" fill="#323232" stroke="#323232" stroke-width="2" d="M0,2 L14,6 L0,11 L0,2"/></marker><marker id="SvgjsMarker1242" markerHeight="12" markerUnits="userSpaceOnUse" markerWidth="16" orient="auto" refX="16" refY="6" viewBox="0 0 16 12"><path id="SvgjsPath1243" fill="#323232" stroke="#323232" stroke-width="2" d="M0,2 L14,6 L0,11 L0,2"/></marker><marker id="SvgjsMarker1246" markerHeight="12" markerUnits="userSpaceOnUse" markerWidth="16" orient="auto" refX="16" refY="6" viewBox="0 0 16 12"><path id="SvgjsPath1247" fill="#323232" stroke="#323232" stroke-width="2" d="M0,2 L14,6 L0,11 L0,2"/></marker><marker id="SvgjsMarker1250" markerHeight="12" markerUnits="userSpaceOnUse" markerWidth="16" orient="auto" refX="16" refY="6" viewBox="0 0 16 12"><path id="SvgjsPath1251" fill="#323232" stroke="#323232" stroke-width="2" d="M0,2 L14,6 L0,11 L0,2"/></marker><marker id="SvgjsMarker1254" markerHeight="12" markerUnits="userSpaceOnUse" markerWidth="16" orient="auto" refX="16" refY="6" viewBox="0 0 16 12"><path id="SvgjsPath1255" fill="#323232" stroke="#323232" stroke-width="2" d="M0,2 L14,6 L0,11 L0,2"/></marker><marker id="SvgjsMarker1258" markerHeight="12" markerUnits="userSpaceOnUse" markerWidth="16" orient="auto" refX="16" refY="6" viewBox="0 0 16 12"><path id="SvgjsPath1259" fill="#323232" stroke="#323232" stroke-width="2" d="M0,2 L14,6 L0,11 L0,2"/></marker><marker id="SvgjsMarker1262" markerHeight="12" markerUnits="userSpaceOnUse" markerWidth="16" orient="auto" refX="16" refY="6" viewBox="0 0 16 12"><path id="SvgjsPath1263" fill="#323232" stroke="#323232" stroke-width="2" d="M0,2 L14,6 L0,11 L0,2"/></marker><marker id="SvgjsMarker1292" markerHeight="12" markerUnits="userSpaceOnUse" markerWidth="16" orient="auto" refX="16" refY="6" viewBox="0 0 16 12"><path id="SvgjsPath1293" fill="#323232" stroke="#323232" stroke-width="2" d="M0,2 L14,6 L0,11 L0,2"/></marker></defs><g id="SvgjsG1008" transform="translate(313.6797260907087,25.004168192545535)"><path id="SvgjsPath1009" fill="#fff" fill-opacity="1" stroke="#323232" stroke-width="2" d="M 12.734082397003746 0L 67.7849920245097 0C 84.76376855384804 0 84.76376855384804 38.20224719101124 67.7849920245097 38.20224719101124L 12.734082397003746 38.20224719101124C -4.244694132334582 38.20224719101124 -4.244694132334582 0 12.734082397003746 0Z"/><g id="SvgjsG1010"><text id="SvgjsText1011" width="28" y="9.151" fill="#323232" align="middle" anchor="middle" family="微软雅黑" font-family="微软雅黑" font-size="13" font-weight="700" size="13" text-anchor="middle" transform="rotate(0)" weight="700"><tspan id="SvgjsTspan1012" x="40.5" dy="16"><tspan id="SvgjsTspan1013">root</tspan></tspan></text></g></g><g id="SvgjsG1014" transform="translate(187.26477924893237,110.57720190041096)"><path id="SvgjsPath1015" fill="#fff" fill-opacity="1" stroke="#323232" stroke-width="2" d="M 12.734082397003746 0L 67.7849920245097 0C 84.76376855384804 0 84.76376855384804 38.20224719101124 67.7849920245097 38.20224719101124L 12.734082397003746 38.20224719101124C -4.244694132334582 38.20224719101124 -4.244694132334582 0 12.734082397003746 0Z"/><g id="SvgjsG1016"><text id="SvgjsText1017" width="25" y="9.151" fill="#323232" align="middle" anchor="middle" family="微软雅黑" font-family="微软雅黑" font-size="13" font-weight="700" size="13" text-anchor="middle" transform="rotate(0)" weight="700"><tspan id="SvgjsTspan1018" x="40.5" dy="16"><tspan id="SvgjsTspan1019">rest</tspan></tspan></text></g></g><g id="SvgjsG1020" transform="translate(412.6775372226664,110.57720190041096)"><path id="SvgjsPath1021" fill="#fff" fill-opacity="1" stroke="#323232" stroke-width="2" d="M 12.734082397003746 0L 67.7849920245097 0C 84.76376855384804 0 84.76376855384804 38.20224719101124 67.7849920245097 38.20224719101124L 12.734082397003746 38.20224719101124C -4.244694132334582 38.20224719101124 -4.244694132334582 0 12.734082397003746 0Z"/><g id="SvgjsG1022"><text id="SvgjsText1023" width="20" y="9.151" fill="#323232" align="middle" anchor="middle" family="微软雅黑" font-family="微软雅黑" font-size="13" font-weight="700" size="13" text-anchor="middle" transform="rotate(0)" weight="700"><tspan id="SvgjsTspan1024" x="40.5" dy="16"><tspan id="SvgjsTspan1025">api</tspan></tspan></text></g></g><g id="SvgjsG1026" transform="translate(344.6685059704946,190.80192100153454)"><path id="SvgjsPath1027" fill="#fff" fill-opacity="1" stroke="#323232" stroke-width="2" d="M 12.734082397003746 0L 67.7849920245097 0C 84.76376855384804 0 84.76376855384804 38.20224719101124 67.7849920245097 38.20224719101124L 12.734082397003746 38.20224719101124C -4.244694132334582 38.20224719101124 -4.244694132334582 0 12.734082397003746 0Z"/><g id="SvgjsG1028"><text id="SvgjsText1029" width="38" y="9.151" fill="#323232" align="middle" anchor="middle" family="微软雅黑" font-family="微软雅黑" font-size="13" font-weight="700" size="13" text-anchor="middle" transform="rotate(0)" weight="700"><tspan id="SvgjsTspan1030" x="40.5" dy="16"><tspan id="SvgjsTspan1031">home</tspan></tspan></text></g></g><g id="SvgjsG1032" transform="translate(216.25164604067723,190.80192100153454)"><path id="SvgjsPath1033" fill="#fff" fill-opacity="1" stroke="#323232" stroke-width="2" d="M 12.734082397003746 0L 67.7849920245097 0C 84.76376855384804 0 84.76376855384804 38.20224719101124 67.7849920245097 38.20224719101124L 12.734082397003746 38.20224719101124C -4.244694132334582 38.20224719101124 -4.244694132334582 0 12.734082397003746 0Z"/><g id="SvgjsG1034"><text id="SvgjsText1035" width="16" y="9.151" fill="#323232" align="middle" anchor="middle" family="微软雅黑" font-family="微软雅黑" font-size="13" font-weight="700" size="13" text-anchor="middle" transform="rotate(0)" weight="700"><tspan id="SvgjsTspan1036" x="40.5" dy="16"><tspan id="SvgjsTspan1037">v2</tspan></tspan></text></g></g><g id="SvgjsG1038" transform="translate(100.30417887369796,190.80192100153454)"><path id="SvgjsPath1039" fill="#fff" fill-opacity="1" stroke="#323232" stroke-width="2" d="M 12.734082397003746 0L 67.7849920245097 0C 84.76376855384804 0 84.76376855384804 38.20224719101124 67.7849920245097 38.20224719101124L 12.734082397003746 38.20224719101124C -4.244694132334582 38.20224719101124 -4.244694132334582 0 12.734082397003746 0Z"/><g id="SvgjsG1040"><text id="SvgjsText1041" width="16" y="9.151" fill="#323232" align="middle" anchor="middle" family="微软雅黑" font-family="微软雅黑" font-size="13" font-weight="700" size="13" text-anchor="middle" transform="rotate(0)" weight="700"><tspan id="SvgjsTspan1042" x="40.5" dy="16"><tspan id="SvgjsTspan1043">v1</tspan></tspan></text></g></g><g id="SvgjsG1044" transform="translate(448.9517711188513,190.80192100153454)"><path id="SvgjsPath1045" fill="#fff" fill-opacity="1" stroke="#323232" stroke-width="2" d="M 12.734082397003746 0L 67.7849920245097 0C 84.76376855384804 0 84.76376855384804 38.20224719101124 67.7849920245097 38.20224719101124L 12.734082397003746 38.20224719101124C -4.244694132334582 38.20224719101124 -4.244694132334582 0 12.734082397003746 0Z"/><g id="SvgjsG1046"><text id="SvgjsText1047" width="16" y="9.151" fill="#323232" align="middle" anchor="middle" family="微软雅黑" font-family="微软雅黑" font-size="13" font-weight="700" size="13" text-anchor="middle" transform="rotate(0)" weight="700"><tspan id="SvgjsTspan1048" x="40.5" dy="16"><tspan id="SvgjsTspan1049">v2</tspan></tspan></text></g></g><g id="SvgjsG1050"><path id="SvgjsPath1051" fill="none" stroke="#323232" stroke-width="2" marker-end="url(#SvgjsMarker1052)" d="M353.9392633014654 63.20641538355687L227.5243164596891 110.57720190041096"/></g><g id="SvgjsG1054"><path id="SvgjsPath1055" fill="none" stroke="#323232" stroke-width="2" marker-end="url(#SvgjsMarker1056)" d="M353.9392633014654 63.20641538355687L452.93707443342316 110.57720190041096"/></g><g id="SvgjsG1058"><path id="SvgjsPath1059" fill="none" stroke="#323232" stroke-width="2" marker-end="url(#SvgjsMarker1060)" d="M227.5243164596891 148.77944909142218L140.56371608445465 190.80192100153454"/></g><g id="SvgjsG1062"><path id="SvgjsPath1063" fill="none" stroke="#323232" stroke-width="2" marker-end="url(#SvgjsMarker1064)" d="M227.5243164596891 148.77944909142218L256.511183251434 190.80192100153454"/></g><g id="SvgjsG1066"><path id="SvgjsPath1067" fill="none" stroke="#323232" stroke-width="2" marker-end="url(#SvgjsMarker1068)" d="M452.93707443342316 148.77944909142218L384.9280431812513 190.80192100153454"/></g><g id="SvgjsG1070" transform="translate(142.0091507311087,271.6352543348677)"><path id="SvgjsPath1071" fill="#fff" fill-opacity="1" stroke="#323232" stroke-width="2" d="M 12.734082397003746 0L 67.7849920245097 0C 84.76376855384804 0 84.76376855384804 38.20224719101124 67.7849920245097 38.20224719101124L 12.734082397003746 38.20224719101124C -4.244694132334582 38.20224719101124 -4.244694132334582 0 12.734082397003746 0Z"/><g id="SvgjsG1072"><text id="SvgjsText1073" width="34" y="9.151" fill="#323232" align="middle" anchor="middle" family="微软雅黑" font-family="微软雅黑" font-size="13" font-weight="700" size="13" text-anchor="middle" transform="rotate(0)" weight="700"><tspan id="SvgjsTspan1074" x="40.5" dy="16"><tspan id="SvgjsTspan1075">book</tspan></tspan></text></g></g><g id="SvgjsG1076" transform="translate(264.14943154898117,272.47630371758373)"><path id="SvgjsPath1077" fill="#fff" fill-opacity="1" stroke="#323232" stroke-width="2" d="M 12.734082397003746 0L 67.7849920245097 0C 84.76376855384804 0 84.76376855384804 38.20224719101124 67.7849920245097 38.20224719101124L 12.734082397003746 38.20224719101124C -4.244694132334582 38.20224719101124 -4.244694132334582 0 12.734082397003746 0Z"/><g id="SvgjsG1078"><text id="SvgjsText1079" width="50" y="9.151" fill="#323232" align="middle" anchor="middle" family="微软雅黑" font-family="微软雅黑" font-size="13" font-weight="700" size="13" text-anchor="middle" transform="rotate(0)" weight="700"><tspan id="SvgjsTspan1080" x="40.5" dy="16"><tspan id="SvgjsTspan1081">student</tspan></tspan></text></g></g><g id="SvgjsG1082" transform="translate(370.8343279251877,272.47630371758373)"><path id="SvgjsPath1083" fill="#fff" fill-opacity="1" stroke="#323232" stroke-width="2" d="M 12.734082397003746 0L 67.7849920245097 0C 84.76376855384804 0 84.76376855384804 38.20224719101124 67.7849920245097 38.20224719101124L 12.734082397003746 38.20224719101124C -4.244694132334582 38.20224719101124 -4.244694132334582 0 12.734082397003746 0Z"/><g id="SvgjsG1084"><text id="SvgjsText1085" width="22" y="9.151" fill="#323232" align="middle" anchor="middle" family="微软雅黑" font-family="微软雅黑" font-size="13" font-weight="700" size="13" text-anchor="middle" transform="rotate(0)" weight="700"><tspan id="SvgjsTspan1086" x="40.5" dy="16"><tspan id="SvgjsTspan1087">get</tspan></tspan></text></g></g><g id="SvgjsG1088" transform="translate(25.000994591855033,271.9130321126454)"><path id="SvgjsPath1089" fill="#fff" fill-opacity="1" stroke="#323232" stroke-width="2" d="M 12.734082397003746 0L 67.7849920245097 0C 84.76376855384804 0 84.76376855384804 38.20224719101124 67.7849920245097 38.20224719101124L 12.734082397003746 38.20224719101124C -4.244694132334582 38.20224719101124 -4.244694132334582 0 12.734082397003746 0Z"/><g id="SvgjsG1090"><text id="SvgjsText1091" width="6" y="9.151" fill="#323232" align="middle" anchor="middle" family="微软雅黑" font-family="微软雅黑" font-size="13" font-weight="700" size="13" text-anchor="middle" transform="rotate(0)" weight="700"><tspan id="SvgjsTspan1092" x="40.5" dy="16"><tspan id="SvgjsTspan1093">*</tspan></tspan></text></g></g><g id="SvgjsG1094" transform="translate(480.83432792518806,271.9130321126454)"><path id="SvgjsPath1095" fill="#fff" fill-opacity="1" stroke="#323232" stroke-width="2" d="M 12.734082397003746 0L 67.7849920245097 0C 84.76376855384804 0 84.76376855384804 38.20224719101124 67.7849920245097 38.20224719101124L 12.734082397003746 38.20224719101124C -4.244694132334582 38.20224719101124 -4.244694132334582 0 12.734082397003746 0Z"/><g id="SvgjsG1096"><text id="SvgjsText1097" width="13" y="9.151" fill="#323232" align="middle" anchor="middle" family="微软雅黑" font-family="微软雅黑" font-size="13" font-weight="700" size="13" text-anchor="middle" transform="rotate(0)" weight="700"><tspan id="SvgjsTspan1098" x="40.5" dy="16"><tspan id="SvgjsTspan1099">**</tspan></tspan></text></g></g><g id="SvgjsG1100" transform="translate(143.31609821564757,352.74636544597865)"><path id="SvgjsPath1101" fill="#fff" fill-opacity="1" stroke="#323232" stroke-width="2" d="M 12.734082397003746 0L 67.7849920245097 0C 84.76376855384804 0 84.76376855384804 38.20224719101124 67.7849920245097 38.20224719101124L 12.734082397003746 38.20224719101124C -4.244694132334582 38.20224719101124 -4.244694132334582 0 12.734082397003746 0Z"/><g id="SvgjsG1102"><text id="SvgjsText1103" width="22" y="9.151" fill="#323232" align="middle" anchor="middle" family="微软雅黑" font-family="微软雅黑" font-size="13" font-weight="700" size="13" text-anchor="middle" transform="rotate(0)" weight="700"><tspan id="SvgjsTspan1104" x="40.5" dy="16"><tspan id="SvgjsTspan1105">get</tspan></tspan></text></g></g><g id="SvgjsG1106" transform="translate(264.14943154898117,352.74636544597865)"><path id="SvgjsPath1107" fill="#fff" fill-opacity="1" stroke="#323232" stroke-width="2" d="M 12.734082397003746 0L 67.7849920245097 0C 84.76376855384804 0 84.76376855384804 38.20224719101124 67.7849920245097 38.20224719101124L 12.734082397003746 38.20224719101124C -4.244694132334582 38.20224719101124 -4.244694132334582 0 12.734082397003746 0Z"/><g id="SvgjsG1108"><text id="SvgjsText1109" width="30" y="9.151" fill="#323232" align="middle" anchor="middle" family="微软雅黑" font-family="微软雅黑" font-size="13" font-weight="700" size="13" text-anchor="middle" transform="rotate(0)" weight="700"><tspan id="SvgjsTspan1110" x="40.5" dy="16"><tspan id="SvgjsTspan1111">post</tspan></tspan></text></g></g><g id="SvgjsG1112" transform="translate(442.7970237941341,352.74636544597865)"><path id="SvgjsPath1113" fill="#fff" fill-opacity="1" stroke="#323232" stroke-width="2" d="M 12.734082397003746 0L 67.7849920245097 0C 84.76376855384804 0 84.76376855384804 38.20224719101124 67.7849920245097 38.20224719101124L 12.734082397003746 38.20224719101124C -4.244694132334582 38.20224719101124 -4.244694132334582 0 12.734082397003746 0Z"/><g id="SvgjsG1114"><text id="SvgjsText1115" width="32" y="9.151" fill="#323232" align="middle" anchor="middle" family="微软雅黑" font-family="微软雅黑" font-size="13" font-weight="700" size="13" text-anchor="middle" transform="rotate(0)" weight="700"><tspan id="SvgjsTspan1116" x="40.5" dy="16"><tspan id="SvgjsTspan1117">chair</tspan></tspan></text></g></g><g id="SvgjsG1118" transform="translate(26.307942076393857,352.74636544597865)"><path id="SvgjsPath1119" fill="#fff" fill-opacity="1" stroke="#323232" stroke-width="2" d="M 12.734082397003746 0L 67.7849920245097 0C 84.76376855384804 0 84.76376855384804 38.20224719101124 67.7849920245097 38.20224719101124L 12.734082397003746 38.20224719101124C -4.244694132334582 38.20224719101124 -4.244694132334582 0 12.734082397003746 0Z"/><g id="SvgjsG1120"><text id="SvgjsText1121" width="22" y="9.151" fill="#323232" align="middle" anchor="middle" family="微软雅黑" font-family="微软雅黑" font-size="13" font-weight="700" size="13" text-anchor="middle" transform="rotate(0)" weight="700"><tspan id="SvgjsTspan1122" x="40.5" dy="16"><tspan id="SvgjsTspan1123">get</tspan></tspan></text></g></g><g id="SvgjsG1124" transform="translate(553.7350992405934,354.9763037175836)"><path id="SvgjsPath1125" fill="#fff" fill-opacity="1" stroke="#323232" stroke-width="2" d="M 12.734082397003746 0L 67.7849920245097 0C 84.76376855384804 0 84.76376855384804 38.20224719101124 67.7849920245097 38.20224719101124L 12.734082397003746 38.20224719101124C -4.244694132334582 38.20224719101124 -4.244694132334582 0 12.734082397003746 0Z"/><g id="SvgjsG1126"><text id="SvgjsText1127" width="34" y="9.151" fill="#323232" align="middle" anchor="middle" family="微软雅黑" font-family="微软雅黑" font-size="13" font-weight="700" size="13" text-anchor="middle" transform="rotate(0)" weight="700"><tspan id="SvgjsTspan1128" x="40.5" dy="16"><tspan id="SvgjsTspan1129">book</tspan></tspan></text></g></g><g id="SvgjsG1130"><path id="SvgjsPath1131" fill="none" stroke="#323232" stroke-width="2" marker-end="url(#SvgjsMarker1132)" d="M452.9370744334231 148.77944909142218L489.211308329608 190.80192100153454"/></g><g id="SvgjsG1134"><path id="SvgjsPath1135" fill="none" stroke="#323232" stroke-width="2" marker-end="url(#SvgjsMarker1136)" d="M140.56371608445468 229.00416819254576L65.26053180261177 271.9130321126454"/></g><g id="SvgjsG1138"><path id="SvgjsPath1139" fill="none" stroke="#323232" stroke-width="2" marker-end="url(#SvgjsMarker1140)" d="M140.56371608445468 229.00416819254576L182.2686879418654 271.6352543348677"/></g><g id="SvgjsG1142"><path id="SvgjsPath1143" fill="none" stroke="#323232" stroke-width="2" marker-end="url(#SvgjsMarker1144)" d="M256.511183251434 229.00416819254576L304.4089687597379 272.47630371758373"/></g><g id="SvgjsG1146"><path id="SvgjsPath1147" fill="none" stroke="#323232" stroke-width="2" marker-end="url(#SvgjsMarker1148)" d="M384.9280431812513 229.00416819254576L411.09386513594444 272.47630371758373"/></g><g id="SvgjsG1150"><path id="SvgjsPath1151" fill="none" stroke="#323232" stroke-width="2" marker-end="url(#SvgjsMarker1152)" d="M489.211308329608 229.00416819254576L521.0938651359447 272.47630371758373"/></g><g id="SvgjsG1154"><path id="SvgjsPath1155" fill="none" stroke="#323232" stroke-width="2" marker-end="url(#SvgjsMarker1156)" d="M521.0938651359447 310.67855090859496L483.0565610048908 352.74636544597865"/></g><g id="SvgjsG1158"><path id="SvgjsPath1159" fill="none" stroke="#323232" stroke-width="2" marker-end="url(#SvgjsMarker1160)" d="M521.0938651359447 310.67855090859496L593.9946364513502 354.9763037175836"/></g><g id="SvgjsG1162" transform="translate(143.31609821564757,429.4130321126454)"><path id="SvgjsPath1163" fill="#fff" fill-opacity="1" stroke="#323232" stroke-width="2" d="M 12.734082397003746 0L 67.7849920245097 0C 84.76376855384804 0 84.76376855384804 38.20224719101124 67.7849920245097 38.20224719101124L 12.734082397003746 38.20224719101124C -4.244694132334582 38.20224719101124 -4.244694132334582 0 12.734082397003746 0Z"/><g id="SvgjsG1164"><text id="SvgjsText1165" width="44" y="9.151" fill="#323232" align="middle" anchor="middle" family="微软雅黑" font-family="微软雅黑" font-size="13" font-weight="700" size="13" text-anchor="middle" transform="rotate(0)" weight="700"><tspan id="SvgjsTspan1166" x="40.5" dy="16"><tspan id="SvgjsTspan1167">[role2]</tspan></tspan></text></g></g><g id="SvgjsG1168" transform="translate(264.14943154898117,429.4130321126454)"><path id="SvgjsPath1169" fill="#fff" fill-opacity="1" stroke="#323232" stroke-width="2" d="M 12.734082397003746 0L 67.7849920245097 0C 84.76376855384804 0 84.76376855384804 38.20224719101124 67.7849920245097 38.20224719101124L 12.734082397003746 38.20224719101124C -4.244694132334582 38.20224719101124 -4.244694132334582 0 12.734082397003746 0Z"/><g id="SvgjsG1170"><text id="SvgjsText1171" width="44" y="9.151" fill="#323232" align="middle" anchor="middle" family="微软雅黑" font-family="微软雅黑" font-size="13" font-weight="700" size="13" text-anchor="middle" transform="rotate(0)" weight="700"><tspan id="SvgjsTspan1172" x="40.5" dy="16"><tspan id="SvgjsTspan1173">[role1]</tspan></tspan></text></g></g><g id="SvgjsG1174" transform="translate(26.307942076393857,429.4130321126454)"><path id="SvgjsPath1175" fill="#fff" fill-opacity="1" stroke="#323232" stroke-width="2" d="M 12.734082397003746 0L 67.7849920245097 0C 84.76376855384804 0 84.76376855384804 38.20224719101124 67.7849920245097 38.20224719101124L 12.734082397003746 38.20224719101124C -4.244694132334582 38.20224719101124 -4.244694132334582 0 12.734082397003746 0Z"/><g id="SvgjsG1176"><text id="SvgjsText1177" width="44" y="9.151" fill="#323232" align="middle" anchor="middle" family="微软雅黑" font-family="微软雅黑" font-size="13" font-weight="700" size="13" text-anchor="middle" transform="rotate(0)" weight="700"><tspan id="SvgjsTspan1178" x="40.5" dy="16"><tspan id="SvgjsTspan1179">[role1]</tspan></tspan></text></g></g><g id="SvgjsG1180" transform="translate(519.9827648823141,429.4130321126454)"><path id="SvgjsPath1181" fill="#fff" fill-opacity="1" stroke="#323232" stroke-width="2" d="M 12.734082397003746 0L 67.7849920245097 0C 84.76376855384804 0 84.76376855384804 38.20224719101124 67.7849920245097 38.20224719101124L 12.734082397003746 38.20224719101124C -4.244694132334582 38.20224719101124 -4.244694132334582 0 12.734082397003746 0Z"/><g id="SvgjsG1182"><text id="SvgjsText1183" width="22" y="9.151" fill="#323232" align="middle" anchor="middle" family="微软雅黑" font-family="微软雅黑" font-size="13" font-weight="700" size="13" text-anchor="middle" transform="rotate(0)" weight="700"><tspan id="SvgjsTspan1184" x="40.5" dy="16"><tspan id="SvgjsTspan1185">get</tspan></tspan></text></g></g><g id="SvgjsG1186" transform="translate(640.8160982156476,429.4130321126454)"><path id="SvgjsPath1187" fill="#fff" fill-opacity="1" stroke="#323232" stroke-width="2" d="M 12.734082397003746 0L 67.7849920245097 0C 84.76376855384804 0 84.76376855384804 38.20224719101124 67.7849920245097 38.20224719101124L 12.734082397003746 38.20224719101124C -4.244694132334582 38.20224719101124 -4.244694132334582 0 12.734082397003746 0Z"/><g id="SvgjsG1188"><text id="SvgjsText1189" width="22" y="9.151" fill="#323232" align="middle" anchor="middle" family="微软雅黑" font-family="微软雅黑" font-size="13" font-weight="700" size="13" text-anchor="middle" transform="rotate(0)" weight="700"><tspan id="SvgjsTspan1190" x="40.5" dy="16"><tspan id="SvgjsTspan1191">put</tspan></tspan></text></g></g><g id="SvgjsG1192" transform="translate(402.97460874306046,429.4130321126453)"><path id="SvgjsPath1193" fill="#fff" fill-opacity="1" stroke="#323232" stroke-width="2" d="M 12.734082397003746 0L 67.7849920245097 0C 84.76376855384804 0 84.76376855384804 38.20224719101124 67.7849920245097 38.20224719101124L 12.734082397003746 38.20224719101124C -4.244694132334582 38.20224719101124 -4.244694132334582 0 12.734082397003746 0Z"/><g id="SvgjsG1194"><text id="SvgjsText1195" width="41" y="9.151" fill="#323232" align="middle" anchor="middle" family="微软雅黑" font-family="微软雅黑" font-size="13" font-weight="700" size="13" text-anchor="middle" transform="rotate(0)" weight="700"><tspan id="SvgjsTspan1196" x="40.5" dy="16"><tspan id="SvgjsTspan1197">delete</tspan></tspan></text></g></g><g id="SvgjsG1198" transform="translate(509.581595097379,509.96858766820105)"><path id="SvgjsPath1199" fill="#fff" fill-opacity="1" stroke="#323232" stroke-width="2" d="M 12.73408239700378 0L 88.58733159437996 0C 105.56610812371832 0 105.56610812371832 38.20224719101134 88.58733159437996 38.20224719101134L 12.73408239700378 38.20224719101134C -4.244694132334593 38.20224719101134 -4.244694132334593 0 12.73408239700378 0Z"/><g id="SvgjsG1200"><text id="SvgjsText1201" width="81" y="9.151" fill="#323232" align="middle" anchor="middle" family="微软雅黑" font-family="微软雅黑" font-size="13" font-weight="700" size="13" text-anchor="middle" transform="rotate(0)" weight="700"><tspan id="SvgjsTspan1202" x="51" dy="16"><tspan id="SvgjsTspan1203">[role2,role4]</tspan></tspan></text></g></g><g id="SvgjsG1204" transform="translate(644.1494315489809,509.96858766820105)"><path id="SvgjsPath1205" fill="#fff" fill-opacity="1" stroke="#323232" stroke-width="2" d="M 12.734082397003746 0L 67.7849920245097 0C 84.76376855384804 0 84.76376855384804 38.20224719101124 67.7849920245097 38.20224719101124L 12.734082397003746 38.20224719101124C -4.244694132334582 38.20224719101124 -4.244694132334582 0 12.734082397003746 0Z"/><g id="SvgjsG1206"><text id="SvgjsText1207" width="44" y="9.151" fill="#323232" align="middle" anchor="middle" family="微软雅黑" font-family="微软雅黑" font-size="13" font-weight="700" size="13" text-anchor="middle" transform="rotate(0)" weight="700"><tspan id="SvgjsTspan1208" x="40.5" dy="16"><tspan id="SvgjsTspan1209">[role4]</tspan></tspan></text></g></g><g id="SvgjsG1210" transform="translate(406.30794207639383,509.96858766820105)"><path id="SvgjsPath1211" fill="#fff" fill-opacity="1" stroke="#323232" stroke-width="2" d="M 12.734082397003746 0L 67.7849920245097 0C 84.76376855384804 0 84.76376855384804 38.20224719101124 67.7849920245097 38.20224719101124L 12.734082397003746 38.20224719101124C -4.244694132334582 38.20224719101124 -4.244694132334582 0 12.734082397003746 0Z"/><g id="SvgjsG1212"><text id="SvgjsText1213" width="44" y="9.151" fill="#323232" align="middle" anchor="middle" family="微软雅黑" font-family="微软雅黑" font-size="13" font-weight="700" size="13" text-anchor="middle" transform="rotate(0)" weight="700"><tspan id="SvgjsTspan1214" x="40.5" dy="16"><tspan id="SvgjsTspan1215">[role4]</tspan></tspan></text></g></g><g id="SvgjsG1216"><path id="SvgjsPath1217" fill="none" stroke="#323232" stroke-width="2" marker-end="url(#SvgjsMarker1218)" d="M65.26053180261177 310.1152793036566L66.56747928715058 352.74636544597865"/></g><g id="SvgjsG1220"><path id="SvgjsPath1221" fill="none" stroke="#323232" stroke-width="2" marker-end="url(#SvgjsMarker1222)" d="M182.2686879418654 309.8375015258789L183.5756354264043 352.74636544597865"/></g><g id="SvgjsG1224"><path id="SvgjsPath1225" fill="none" stroke="#323232" stroke-width="2" marker-end="url(#SvgjsMarker1226)" d="M304.4089687597379 310.67855090859496L304.4089687597379 352.74636544597865"/></g><g id="SvgjsG1228"><path id="SvgjsPath1229" fill="none" stroke="#323232" stroke-width="2" marker-end="url(#SvgjsMarker1230)" d="M66.56747928715058 390.9486126369899L66.56747928715058 429.4130321126454"/></g><g id="SvgjsG1232"><path id="SvgjsPath1233" fill="none" stroke="#323232" stroke-width="2" marker-end="url(#SvgjsMarker1234)" d="M183.5756354264043 390.9486126369899L183.5756354264043 429.4130321126454"/></g><g id="SvgjsG1236"><path id="SvgjsPath1237" fill="none" stroke="#323232" stroke-width="2" marker-end="url(#SvgjsMarker1238)" d="M304.4089687597379 390.9486126369899L304.40896875973795 429.4130321126454"/></g><g id="SvgjsG1240"><path id="SvgjsPath1241" fill="none" stroke="#323232" stroke-width="2" marker-end="url(#SvgjsMarker1242)" d="M483.0565610048908 390.9486126369899L443.2341459538172 429.4130321126453"/></g><g id="SvgjsG1244"><path id="SvgjsPath1245" fill="none" stroke="#323232" stroke-width="2" marker-end="url(#SvgjsMarker1246)" d="M593.9946364513502 393.17855090859484L560.2423020930709 429.4130321126454"/></g><g id="SvgjsG1248"><path id="SvgjsPath1249" fill="none" stroke="#323232" stroke-width="2" marker-end="url(#SvgjsMarker1250)" d="M593.9946364513502 393.17855090859484L681.0756354264043 429.4130321126454"/></g><g id="SvgjsG1252"><path id="SvgjsPath1253" fill="none" stroke="#323232" stroke-width="2" marker-end="url(#SvgjsMarker1254)" d="M443.2341459538172 467.6152793036565L446.56747928715055 509.96858766820105"/></g><g id="SvgjsG1256"><path id="SvgjsPath1257" fill="none" stroke="#323232" stroke-width="2" marker-end="url(#SvgjsMarker1258)" d="M560.2423020930709 467.6152793036566L560.242302093071 509.96858766820105"/></g><g id="SvgjsG1260"><path id="SvgjsPath1261" fill="none" stroke="#323232" stroke-width="2" marker-end="url(#SvgjsMarker1262)" d="M681.0756354264043 467.6152793036566L684.4089687597377 509.96858766820105"/></g><g id="SvgjsG1264" transform="translate(610.9030090887627,96.8375015258789)"><path id="SvgjsPath1265" fill="#fff" fill-opacity="1" stroke="#323232" stroke-width="2" d="M 0 4Q 0 0 4 0L 375.8214139913837 0Q 379.8214139913837 0 379.8214139913837 4L 379.8214139913837 184.80898876404478Q 379.8214139913837 188.80898876404478 375.8214139913837 188.80898876404478L 4 188.80898876404478Q 0 188.80898876404478 0 184.80898876404478Z"/><g id="SvgjsG1266"><text id="SvgjsText1267" width="299" y="28.454" fill="#323232" align="middle" anchor="start" family="微软雅黑" font-family="微软雅黑" font-size="13" font-weight="700" size="13" text-anchor="start" transform="rotate(0)" weight="700"><tspan id="SvgjsTspan1268" x="10" dy="16"><tspan id="SvgjsTspan1269">/rest/v1/*===get===[role1]</tspan></tspan><tspan id="SvgjsTspan1270" x="10" dy="16"><tspan id="SvgjsTspan1271"> /rest/v1/book===get===[role2]</tspan></tspan><tspan id="SvgjsTspan1272" x="10" dy="16"><tspan id="SvgjsTspan1273"> /rest/v2/student===post===[role1]</tspan></tspan><tspan id="SvgjsTspan1274" x="10" dy="16"><tspan id="SvgjsTspan1275"> /api/home===get===[]</tspan></tspan><tspan id="SvgjsTspan1276" x="10" dy="16"><tspan id="SvgjsTspan1277"> /api/v2/**/chair===delete===[role4]</tspan></tspan><tspan id="SvgjsTspan1278" x="10" dy="16"><tspan id="SvgjsTspan1279"> /api/v2/**/book===get===[role2,role4]</tspan></tspan><tspan id="SvgjsTspan1280" x="10" dy="16"><tspan id="SvgjsTspan1281"> /api/v2/**/book===put===[role4]</tspan></tspan></text></g></g><g id="SvgjsG1284" transform="translate(358.8343279251877,352.74636544597865)"><path id="SvgjsPath1285" fill="#fff" fill-opacity="1" stroke="#323232" stroke-width="2" d="M 12.734082397003746 0L 67.7849920245097 0C 84.76376855384804 0 84.76376855384804 38.20224719101124 67.7849920245097 38.20224719101124L 12.734082397003746 38.20224719101124C -4.244694132334582 38.20224719101124 -4.244694132334582 0 12.734082397003746 0Z"/><g id="SvgjsG1286"><text id="SvgjsText1287" width="10" y="9.151" fill="#323232" align="middle" anchor="middle" family="微软雅黑" font-family="微软雅黑" font-size="13" font-weight="700" size="13" text-anchor="middle" transform="rotate(0)" weight="700"><tspan id="SvgjsTspan1288" x="40.5" dy="16"><tspan id="SvgjsTspan1289">[]</tspan></tspan></text></g></g><g id="SvgjsG1290"><path id="SvgjsPath1291" fill="none" stroke="#323232" stroke-width="2" marker-end="url(#SvgjsMarker1292)" d="M411.09386513594444 310.67855090859496L399.09386513594444 352.74636544597865"/></g><g id="SvgjsG1294" transform="translate(750.3079420763938,517.0697112637067)"><path id="SvgjsPath1295" fill="none" stroke="none" d="M 0 0L 218 0L 218 24L 0 24Z"/><g id="SvgjsG1296"><text id="SvgjsText1297" width="198" y="2.05" fill="#323232" align="middle" anchor="middle" family="微软雅黑" font-family="微软雅黑" font-size="13" font-weight="400" size="13" text-anchor="middle" transform="rotate(0)" weight="400"><tspan id="SvgjsTspan1298" x="109" dy="16"><tspan id="SvgjsTspan1299">power by tomsun28(usthe.com)</tspan></tspan></text></g></g></svg>