<svg xmlns="http://www.w3.org/2000/svg" xmlns:svgjs="http://svgjs.com/svgjs" xmlns:xlink="http://www.w3.org/1999/xlink" id="SvgjsSvg1006" width="819" height="1854.5" version="1.1"><defs id="SvgjsDefs1007"><marker id="SvgjsMarker1022" markerHeight="12" markerUnits="userSpaceOnUse" markerWidth="16" orient="auto" refX="16" refY="6" viewBox="0 0 16 12"><path id="SvgjsPath1023" fill="#323232" stroke="#323232" stroke-width="2" d="M0,2 L14,6 L0,11 L0,2"/></marker><marker id="SvgjsMarker1062" markerHeight="12" markerUnits="userSpaceOnUse" markerWidth="16" orient="auto" refX="16" refY="6" viewBox="0 0 16 12"><path id="SvgjsPath1063" fill="#323232" stroke="#323232" stroke-width="2" d="M0,2 L14,6 L0,11 L0,2"/></marker><marker id="SvgjsMarker1066" markerHeight="12" markerUnits="userSpaceOnUse" markerWidth="16" orient="auto" refX="16" refY="6" viewBox="0 0 16 12"><path id="SvgjsPath1067" fill="#323232" stroke="#323232" stroke-width="2" d="M0,2 L14,6 L0,11 L0,2"/></marker><marker id="SvgjsMarker1080" markerHeight="12" markerUnits="userSpaceOnUse" markerWidth="16" orient="auto" refX="16" refY="6" viewBox="0 0 16 12"><path id="SvgjsPath1081" fill="#323232" stroke="#323232" stroke-width="2" d="M0,2 L14,6 L0,11 L0,2"/></marker><marker id="SvgjsMarker1094" markerHeight="12" markerUnits="userSpaceOnUse" markerWidth="16" orient="auto" refX="16" refY="6" viewBox="0 0 16 12"><path id="SvgjsPath1095" fill="#323232" stroke="#323232" stroke-width="2" d="M0,2 L14,6 L0,11 L0,2"/></marker><marker id="SvgjsMarker1098" markerHeight="12" markerUnits="userSpaceOnUse" markerWidth="16" orient="auto" refX="16" refY="6" viewBox="0 0 16 12"><path id="SvgjsPath1099" fill="#323232" stroke="#323232" stroke-width="2" d="M0,2 L14,6 L0,11 L0,2"/></marker><marker id="SvgjsMarker1112" markerHeight="12" markerUnits="userSpaceOnUse" markerWidth="16" orient="auto" refX="16" refY="6" viewBox="0 0 16 12"><path id="SvgjsPath1113" fill="#323232" stroke="#323232" stroke-width="2" d="M0,2 L14,6 L0,11 L0,2"/></marker><marker id="SvgjsMarker1126" markerHeight="12" markerUnits="userSpaceOnUse" markerWidth="16" orient="auto" refX="16" refY="6" viewBox="0 0 16 12"><path id="SvgjsPath1127" fill="#323232" stroke="#323232" stroke-width="2" d="M0,2 L14,6 L0,11 L0,2"/></marker><marker id="SvgjsMarker1134" markerHeight="12" markerUnits="userSpaceOnUse" markerWidth="16" orient="auto" refX="16" refY="6" viewBox="0 0 16 12"><path id="SvgjsPath1135" fill="#323232" stroke="#323232" stroke-width="2" d="M0,2 L14,6 L0,11 L0,2"/></marker><marker id="SvgjsMarker1150" markerHeight="12" markerUnits="userSpaceOnUse" markerWidth="16" orient="auto" refX="16" refY="6" viewBox="0 0 16 12"><path id="SvgjsPath1151" fill="#323232" stroke="#323232" stroke-width="2" d="M0,2 L14,6 L0,11 L0,2"/></marker><marker id="SvgjsMarker1172" markerHeight="12" markerUnits="userSpaceOnUse" markerWidth="16" orient="auto" refX="16" refY="6" viewBox="0 0 16 12"><path id="SvgjsPath1173" fill="#323232" stroke="#323232" stroke-width="2" d="M0,2 L14,6 L0,11 L0,2"/></marker><marker id="SvgjsMarker1198" markerHeight="12" markerUnits="userSpaceOnUse" markerWidth="16" orient="auto" refX="16" refY="6" viewBox="0 0 16 12"><path id="SvgjsPath1199" fill="#323232" stroke="#323232" stroke-width="2" d="M0,2 L14,6 L0,11 L0,2"/></marker><marker id="SvgjsMarker1216" markerHeight="12" markerUnits="userSpaceOnUse" markerWidth="16" orient="auto" refX="16" refY="6" viewBox="0 0 16 12"><path id="SvgjsPath1217" fill="#323232" stroke="#323232" stroke-width="2" d="M0,2 L14,6 L0,11 L0,2"/></marker><marker id="SvgjsMarker1224" markerHeight="12" markerUnits="userSpaceOnUse" markerWidth="16" orient="auto" refX="16" refY="6" viewBox="0 0 16 12"><path id="SvgjsPath1225" fill="#323232" stroke="#323232" stroke-width="2" d="M0,2 L14,6 L0,11 L0,2"/></marker><marker id="SvgjsMarker1242" markerHeight="12" markerUnits="userSpaceOnUse" markerWidth="16" orient="auto" refX="16" refY="6" viewBox="0 0 16 12"><path id="SvgjsPath1243" fill="#323232" stroke="#323232" stroke-width="2" d="M0,2 L14,6 L0,11 L0,2"/></marker><marker id="SvgjsMarker1264" markerHeight="12" markerUnits="userSpaceOnUse" markerWidth="16" orient="auto" refX="16" refY="6" viewBox="0 0 16 12"><path id="SvgjsPath1265" fill="#323232" stroke="#323232" stroke-width="2" d="M0,2 L14,6 L0,11 L0,2"/></marker><marker id="SvgjsMarker1274" markerHeight="12" markerUnits="userSpaceOnUse" markerWidth="16" orient="auto" refX="16" refY="6" viewBox="0 0 16 12"><path id="SvgjsPath1275" fill="#323232" stroke="#323232" stroke-width="2" d="M0,2 L14,6 L0,11 L0,2"/></marker><marker id="SvgjsMarker1290" markerHeight="12" markerUnits="userSpaceOnUse" markerWidth="16" orient="auto" refX="16" refY="6" viewBox="0 0 16 12"><path id="SvgjsPath1291" fill="#323232" stroke="#323232" stroke-width="2" d="M0,2 L14,6 L0,11 L0,2"/></marker><marker id="SvgjsMarker1298" markerHeight="12" markerUnits="userSpaceOnUse" markerWidth="16" orient="auto" refX="16" refY="6" viewBox="0 0 16 12"><path id="SvgjsPath1299" fill="#323232" stroke="#323232" stroke-width="2" d="M0,2 L14,6 L0,11 L0,2"/></marker><marker id="SvgjsMarker1314" markerHeight="12" markerUnits="userSpaceOnUse" markerWidth="16" orient="auto" refX="16" refY="6" viewBox="0 0 16 12"><path id="SvgjsPath1315" fill="#323232" stroke="#323232" stroke-width="2" d="M0,2 L14,6 L0,11 L0,2"/></marker><marker id="SvgjsMarker1322" markerHeight="12" markerUnits="userSpaceOnUse" markerWidth="16" orient="auto" refX="16" refY="6" viewBox="0 0 16 12"><path id="SvgjsPath1323" fill="#323232" stroke="#323232" stroke-width="2" d="M0,2 L14,6 L0,11 L0,2"/></marker><marker id="SvgjsMarker1338" markerHeight="12" markerUnits="userSpaceOnUse" markerWidth="16" orient="auto" refX="16" refY="6" viewBox="0 0 16 12"><path id="SvgjsPath1339" fill="#323232" stroke="#323232" stroke-width="2" d="M0,2 L14,6 L0,11 L0,2"/></marker><marker id="SvgjsMarker1364" markerHeight="12" markerUnits="userSpaceOnUse" markerWidth="16" orient="auto" refX="16" refY="6" viewBox="0 0 16 12"><path id="SvgjsPath1365" fill="#323232" stroke="#323232" stroke-width="2" d="M0,2 L14,6 L0,11 L0,2"/></marker><marker id="SvgjsMarker1368" markerHeight="12" markerUnits="userSpaceOnUse" markerWidth="16" orient="auto" refX="16" refY="6" viewBox="0 0 16 12"><path id="SvgjsPath1369" fill="#323232" stroke="#323232" stroke-width="2" d="M0,2 L14,6 L0,11 L0,2"/></marker><marker id="SvgjsMarker1380" markerHeight="12" markerUnits="userSpaceOnUse" markerWidth="16" orient="auto" refX="16" refY="6" viewBox="0 0 16 12"><path id="SvgjsPath1381" fill="#323232" stroke="#323232" stroke-width="2" d="M0,2 L14,6 L0,11 L0,2"/></marker><marker id="SvgjsMarker1394" markerHeight="12" markerUnits="userSpaceOnUse" markerWidth="16" orient="auto" refX="16" refY="6" viewBox="0 0 16 12"><path id="SvgjsPath1395" fill="#323232" stroke="#323232" stroke-width="2" d="M0,2 L14,6 L0,11 L0,2"/></marker><marker id="SvgjsMarker1410" markerHeight="12" markerUnits="userSpaceOnUse" markerWidth="16" orient="auto" refX="16" refY="6" viewBox="0 0 16 12"><path id="SvgjsPath1411" fill="#323232" stroke="#323232" stroke-width="2" d="M0,2 L14,6 L0,11 L0,2"/></marker><marker id="SvgjsMarker1422" markerHeight="12" markerUnits="userSpaceOnUse" markerWidth="16" orient="auto" refX="16" refY="6" viewBox="0 0 16 12"><path id="SvgjsPath1423" fill="#323232" stroke="#323232" stroke-width="2" d="M0,2 L14,6 L0,11 L0,2"/></marker><marker id="SvgjsMarker1426" markerHeight="12" markerUnits="userSpaceOnUse" markerWidth="16" orient="auto" refX="16" refY="6" viewBox="0 0 16 12"><path id="SvgjsPath1427" fill="#323232" stroke="#323232" stroke-width="2" d="M0,2 L14,6 L0,11 L0,2"/></marker><marker id="SvgjsMarker1440" markerHeight="12" markerUnits="userSpaceOnUse" markerWidth="16" orient="auto" refX="16" refY="6" viewBox="0 0 16 12"><path id="SvgjsPath1441" fill="#323232" stroke="#323232" stroke-width="2" d="M0,2 L14,6 L0,11 L0,2"/></marker></defs><g id="SvgjsG1008" transform="translate(26.6527190917119,868.9000244140625)"><path id="SvgjsPath1009" fill="#fff" fill-opacity="1" stroke="#323232" stroke-width="2" d="M 0 0L 765.9999999999998 0L 765.9999999999998 279.8666636149096L 0 279.8666636149096L 0 0ZM 20 0L 20 279.8666636149096M 745.9999999999998 0L 745.9999999999998 279.8666636149096"/></g><g id="SvgjsG1012" transform="translate(329.6527190917118,715.7666918436692)"><path id="SvgjsPath1013" fill="#fff" fill-opacity="1" stroke="#323232" stroke-width="2" d="M 0 0L 160 0L 160 56.79999542236328L 0 56.79999542236328Z"/><g id="SvgjsG1014"><text id="SvgjsText1015" width="138" y="10.45" fill="#323232" align="middle" anchor="middle" family="微软雅黑" font-family="微软雅黑" font-size="13" font-weight="400" size="13" text-anchor="middle" transform="rotate(0)" weight="400"><tspan id="SvgjsTspan1016" x="80" dy="16"><tspan id="SvgjsTspan1017">(1)subject进入</tspan></tspan><tspan id="SvgjsTspan1018" x="80" dy="16"><tspan id="SvgjsTspan1019">Processor链子流程处理</tspan></tspan></text></g></g><g id="SvgjsG1020"><path id="SvgjsPath1021" fill="none" stroke="#323232" stroke-width="2" marker-end="url(#SvgjsMarker1022)" d="M409.6527190917117 772.5666872660324L409.6527190917117 820.7333558400475L409.6527190917117 820.7333558400475L409.6527190917117 868.9000244140625"/></g><g id="SvgjsG1024" transform="translate(192.6527190917118,790.9666926066088)"><path id="SvgjsPath1025" fill="#fff" fill-opacity="1" stroke="#323232" stroke-width="2" d="M 0 65.625L 0 0L 190 0L 190 65.625Q 142.5 46.875 95 65.625Q 47.5 84.375 0 65.625Z"/><g id="SvgjsG1026"><text id="SvgjsText1027" width="186" y="7.8" fill="#323232" align="middle" anchor="middle" family="微软雅黑" font-family="微软雅黑" font-size="13" font-weight="400" size="13" text-anchor="middle" transform="rotate(0)" weight="400"><tspan id="SvgjsTspan1028" x="95" dy="16"><tspan id="SvgjsTspan1029">传入访问此资源所支持的角色</tspan></tspan><tspan id="SvgjsTspan1030" x="95" dy="16"><tspan id="SvgjsTspan1031">role1,role2,传入创建的不同类型</tspan></tspan><tspan id="SvgjsTspan1032" x="95" dy="16"><tspan id="SvgjsTspan1033">的subject</tspan></tspan></text></g></g><g id="SvgjsG1034" transform="translate(423.6527190917119,790.9666926066088)"><path id="SvgjsPath1035" fill="#fff" fill-opacity="1" stroke="#323232" stroke-width="2" d="M 0 57.75L 0 0L 186 0L 186 57.75Q 139.5 41.25 93 57.75Q 46.5 74.25 0 57.75Z"/><g id="SvgjsG1036"><text id="SvgjsText1037" width="178" y="11.75" fill="#323232" align="middle" anchor="middle" family="微软雅黑" font-family="微软雅黑" font-size="13" font-weight="400" size="13" text-anchor="middle" transform="rotate(0)" weight="400"><tspan id="SvgjsTspan1038" x="93" dy="16"><tspan id="SvgjsTspan1039">进入到多个自定义的processor</tspan></tspan><tspan id="SvgjsTspan1040" x="93" dy="16"><tspan id="SvgjsTspan1041">处理器组成的过滤链处理</tspan></tspan></text></g></g><g id="SvgjsG1042" transform="translate(52.6527190917119,909.0666901270556)"><path id="SvgjsPath1043" fill="#fff" fill-opacity="1" stroke="#323232" stroke-width="2" d="M 60 112C -20 112 -20 0 60 0C 140 0 140 112 60 112L 120 112Z"/><g id="SvgjsG1044"><text id="SvgjsText1045" width="68" y="30.05" fill="#323232" align="middle" anchor="middle" family="微软雅黑" font-family="微软雅黑" font-size="13" font-weight="400" size="13" text-anchor="middle" transform="rotate(0)" weight="400"><tspan id="SvgjsTspan1046" x="60" dy="16"><tspan id="SvgjsTspan1047">processor1</tspan></tspan><tspan id="SvgjsTspan1048" x="60" dy="16"><tspan id="SvgjsTspan1049">processor2</tspan></tspan><tspan id="SvgjsTspan1050" x="60" dy="16"><tspan id="SvgjsTspan1051">processor3</tspan></tspan></text></g></g><g id="SvgjsG1052" transform="translate(253.9527221434696,914.1666895548508)"><path id="SvgjsPath1053" fill="#fff" fill-opacity="1" stroke="#323232" stroke-width="2" d="M 0 50.90000057220459L 155.6999969482422 0L 311.3999938964844 50.90000057220459L 155.6999969482422 101.80000114440918L 0 50.90000057220459Z"/><g id="SvgjsG1054"><text id="SvgjsText1055" width="181" y="32.95" fill="#323232" align="middle" anchor="middle" family="微软雅黑" font-family="微软雅黑" font-size="13" font-weight="400" size="13" text-anchor="middle" transform="rotate(0)" weight="400"><tspan id="SvgjsTspan1056" x="156" dy="16"><tspan id="SvgjsTspan1057">processor1.support(subject1)</tspan></tspan><tspan id="SvgjsTspan1058" x="156" dy="16"><tspan id="SvgjsTspan1059">&amp;&amp;processor1.isOver()?</tspan></tspan></text></g></g><g id="SvgjsG1060"><path id="SvgjsPath1061" fill="none" stroke="#323232" stroke-width="2" marker-end="url(#SvgjsMarker1062)" d="M409.6527190917117 868.9000244140625L409.6527190917117 838.9000244140625L409.6527190917119 884.1666895548508L409.6527190917119 914.1666895548508"/></g><g id="SvgjsG1064"><path id="SvgjsPath1065" fill="none" stroke="#323232" stroke-width="2" marker-end="url(#SvgjsMarker1066)" d="M172.6527190917118 965.0666901270542L213.3027206175907 965.0666901270542L213.3027206175907 965.0666901270542L253.9527221434696 965.0666901270542"/></g><g id="SvgjsG1068" transform="translate(464.4568931970384,1041.5666910807283)"><path id="SvgjsPath1069" fill="#fff" fill-opacity="1" stroke="#323232" stroke-width="2" d="M 0 0L 113.86666361490882 0L 113.86666361490882 70L 0 70Z"/><g id="SvgjsG1070"><text id="SvgjsText1071" width="86" y="9.05" fill="#323232" align="middle" anchor="middle" family="微软雅黑" font-family="微软雅黑" font-size="13" font-weight="400" size="13" text-anchor="middle" transform="rotate(0)" weight="400"><tspan id="SvgjsTspan1072" x="57" dy="16"><tspan id="SvgjsTspan1073">(2)进入到对应</tspan></tspan><tspan id="SvgjsTspan1074" x="57" dy="16"><tspan id="SvgjsTspan1075">的processor处</tspan></tspan><tspan id="SvgjsTspan1076" x="57" dy="16"><tspan id="SvgjsTspan1077">理认证授权</tspan></tspan></text></g></g><g id="SvgjsG1078"><path id="SvgjsPath1079" fill="none" stroke="#323232" stroke-width="2" marker-end="url(#SvgjsMarker1080)" d="M409.6527190917119 1015.9666906992588L409.6527190917119 1076.566691080728L464.4568931970384 1076.566691080728"/><rect id="SvgjsRect1082" width="26" height="16" x="396.653" y="1065.669" fill="#fff"/><text id="SvgjsText1083" width="25" y="1063.719" fill="#323232" align="top" anchor="middle" family="微软雅黑" font-family="微软雅黑" font-size="13" font-weight="400" size="13" text-anchor="middle" transform="rotate(0)" weight="400"><tspan id="SvgjsTspan1084" x="409.653" dy="16"><tspan id="SvgjsTspan1085">true</tspan></tspan></text></g><g id="SvgjsG1086" transform="translate(609.6527190917119,1041.5666910807283)"><path id="SvgjsPath1087" fill="#fff" fill-opacity="1" stroke="#323232" stroke-width="2" d="M 0 35L 45 0L 90 35L 45 70L 0 35Z"/><g id="SvgjsG1088"><text id="SvgjsText1089" width="52" y="25.05" fill="#323232" align="middle" anchor="middle" family="微软雅黑" font-family="微软雅黑" font-size="13" font-weight="400" size="13" text-anchor="middle" transform="rotate(0)" weight="400"><tspan id="SvgjsTspan1090" x="45" dy="16"><tspan id="SvgjsTspan1091">success?</tspan></tspan></text></g></g><g id="SvgjsG1092"><path id="SvgjsPath1093" fill="none" stroke="#323232" stroke-width="2" marker-end="url(#SvgjsMarker1094)" d="M578.3235568119472 1076.566691080728L593.9881379518296 1076.566691080728L593.9881379518296 1076.566691080728L609.6527190917119 1076.566691080728"/></g><g id="SvgjsG1096"><path id="SvgjsPath1097" fill="none" stroke="#323232" stroke-width="2" marker-end="url(#SvgjsMarker1098)" d="M699.6527190917119 1076.566691080728L729.6527190917119 1076.566691080728L729.6527190917119 885.7666918436693L412.2527251952275 885.7666918436693"/><rect id="SvgjsRect1100" width="29" height="16" x="666.853" y="877.767" fill="#fff"/><text id="SvgjsText1101" width="29" y="875.817" fill="#323232" align="top" anchor="middle" family="微软雅黑" font-family="微软雅黑" font-size="13" font-weight="400" size="13" text-anchor="middle" transform="rotate(0)" weight="400"><tspan id="SvgjsTspan1102" x="681.353" dy="16"><tspan id="SvgjsTspan1103">flase</tspan></tspan></text></g><g id="SvgjsG1104" transform="translate(603.2527099364386,1169.1666971842442)"><path id="SvgjsPath1105" fill="#fff" fill-opacity="1" stroke="#323232" stroke-width="2" d="M 0 0L 102.80001831054665 0L 102.80001831054665 45.733327229818315L 0 45.733327229818315Z"/><g id="SvgjsG1106"><text id="SvgjsText1107" width="78" y="12.917" fill="#323232" align="middle" anchor="middle" family="微软雅黑" font-family="微软雅黑" font-size="13" font-weight="400" size="13" text-anchor="middle" transform="rotate(0)" weight="400"><tspan id="SvgjsTspan1108" x="51.5" dy="16"><tspan id="SvgjsTspan1109">认证授权成功</tspan></tspan></text></g></g><g id="SvgjsG1110"><path id="SvgjsPath1111" fill="none" stroke="#323232" stroke-width="2" marker-end="url(#SvgjsMarker1112)" d="M654.6527190917119 1111.566691080728L654.6527190917119 1140.3666941324861L654.6527190917119 1140.3666941324861L654.6527190917119 1169.1666971842442"/><rect id="SvgjsRect1114" width="26" height="16" x="641.653" y="1132.367" fill="#fff"/><text id="SvgjsText1115" width="25" y="1130.417" fill="#323232" align="top" anchor="middle" family="微软雅黑" font-family="微软雅黑" font-size="13" font-weight="400" size="13" text-anchor="middle" transform="rotate(0)" weight="400"><tspan id="SvgjsTspan1116" x="654.653" dy="16"><tspan id="SvgjsTspan1117">true</tspan></tspan></text></g><g id="SvgjsG1118" transform="translate(147.2527251952274,1023.5666910807283)"><path id="SvgjsPath1119" fill="#fff" fill-opacity="1" stroke="#323232" stroke-width="2" d="M 0 27L 84.19999694824219 0L 168.39999389648438 27L 84.19999694824219 54L 0 27Z"/><g id="SvgjsG1120"><text id="SvgjsText1121" width="139" y="17.05" fill="#323232" align="middle" anchor="middle" family="微软雅黑" font-family="微软雅黑" font-size="13" font-weight="400" size="13" text-anchor="middle" transform="rotate(0)" weight="400"><tspan id="SvgjsTspan1122" x="84.5" dy="16"><tspan id="SvgjsTspan1123">processor链匹配完了？</tspan></tspan></text></g></g><g id="SvgjsG1124"><path id="SvgjsPath1125" fill="none" stroke="#323232" stroke-width="2" marker-end="url(#SvgjsMarker1126)" d="M253.9527221434696 965.0666901270542L231.4527221434696 965.0666901270542L231.4527221434696 1023.5666910807283"/><rect id="SvgjsRect1128" width="29" height="16" x="216.953" y="975.067" fill="#fff"/><text id="SvgjsText1129" width="29" y="973.117" fill="#323232" align="top" anchor="middle" family="微软雅黑" font-family="微软雅黑" font-size="13" font-weight="400" size="13" text-anchor="middle" transform="rotate(0)" weight="400"><tspan id="SvgjsTspan1130" x="231.453" dy="16"><tspan id="SvgjsTspan1131">flase</tspan></tspan></text></g><g id="SvgjsG1132"><path id="SvgjsPath1133" fill="none" stroke="#323232" stroke-width="2" marker-end="url(#SvgjsMarker1134)" d="M147.2527251952274 1050.5666910807283L117.25272519522741 1050.5666910807283L117.25272519522741 884.1666895548509L409.6527190917119 884.1666895548509L409.6527190917119 914.1666895548508"/><rect id="SvgjsRect1136" width="29" height="16" x="165.753" y="876.167" fill="#fff"/><text id="SvgjsText1137" width="29" y="874.217" fill="#323232" align="top" anchor="middle" family="微软雅黑" font-family="微软雅黑" font-size="13" font-weight="400" size="13" text-anchor="middle" transform="rotate(0)" weight="400"><tspan id="SvgjsTspan1138" x="180.253" dy="16"><tspan id="SvgjsTspan1139">flase</tspan></tspan></text></g><g id="SvgjsG1140" transform="translate(177.07772405081835,1168.166697184244)"><path id="SvgjsPath1141" fill="#fff" fill-opacity="1" stroke="#323232" stroke-width="2" d="M 0 0L 108.7499961853025 0L 108.7499961853025 47.73332722981854L 0 47.73332722981854Z"/><g id="SvgjsG1142"><text id="SvgjsText1143" width="78" y="5.917" fill="#323232" align="middle" anchor="middle" family="微软雅黑" font-family="微软雅黑" font-size="13" font-weight="400" size="13" text-anchor="middle" transform="rotate(0)" weight="400"><tspan id="SvgjsTspan1144" x="54.5" dy="16"><tspan id="SvgjsTspan1145">认证授权失败</tspan></tspan><tspan id="SvgjsTspan1146" x="54.5" dy="16"><tspan id="SvgjsTspan1147">抛出对应异常</tspan></tspan></text></g></g><g id="SvgjsG1148"><path id="SvgjsPath1149" fill="none" stroke="#323232" stroke-width="2" marker-end="url(#SvgjsMarker1150)" d="M231.4527221434696 1077.566691080728L231.4527221434696 1122.866694132486L231.4527221434696 1122.866694132486L231.4527221434696 1168.166697184244"/><rect id="SvgjsRect1152" width="26" height="16" x="218.453" y="1114.867" fill="#fff"/><text id="SvgjsText1153" width="25" y="1112.917" fill="#323232" align="top" anchor="middle" family="微软雅黑" font-family="微软雅黑" font-size="13" font-weight="400" size="13" text-anchor="middle" transform="rotate(0)" weight="400"><tspan id="SvgjsTspan1154" x="231.453" dy="16"><tspan id="SvgjsTspan1155">true</tspan></tspan></text></g><g id="SvgjsG1156" transform="translate(26.6527190917119,1413.6598854892136)"><path id="SvgjsPath1157" fill="#fff" fill-opacity="1" stroke="#323232" stroke-width="2" d="M 0 0L 765.9999999999997 0L 765.9999999999997 304.8882277910224L 0 304.8882277910224L 0 0ZM 20 0L 20 304.8882277910224M 745.9999999999997 0L 745.9999999999997 304.8882277910224"/></g><g id="SvgjsG1164" transform="translate(77.07772405081835,160.3337007486944)"><path id="SvgjsPath1165" fill="#fff" fill-opacity="1" stroke="#323232" stroke-width="2" d="M 17.513800079694377 0L 94.5163715157522 0C 117.8681049553447 0 117.8681049553447 52.54140023908313 94.5163715157522 52.54140023908313L 17.513800079694377 52.54140023908313C -5.837933359898126 52.54140023908313 -5.837933359898126 0 17.513800079694377 0Z"/><g id="SvgjsG1166"><text id="SvgjsText1167" width="66" y="16.321" fill="#323232" align="middle" anchor="middle" family="微软雅黑" font-family="微软雅黑" font-size="13" font-weight="400" size="13" text-anchor="middle" transform="rotate(0)" weight="400"><tspan id="SvgjsTspan1168" x="56.5" dy="16"><tspan id="SvgjsTspan1169">restful请求</tspan></tspan></text></g></g><g id="SvgjsG1170"><path id="SvgjsPath1171" fill="none" stroke="#323232" stroke-width="2" marker-end="url(#SvgjsMarker1172)" d="M189.10789564626492 186.60440086823598L242.1142171337268 186.60440086823598L242.1142171337268 82.27014895489076L295.12053862118864 82.27014895489076"/><rect id="SvgjsRect1174" width="154" height="16" x="165.114" y="126.437" fill="#fff"/><text id="SvgjsText1175" width="154" y="124.487" fill="#323232" align="top" anchor="middle" family="微软雅黑" font-family="微软雅黑" font-size="13" font-weight="400" size="13" text-anchor="middle" transform="rotate(0)" weight="400"><tspan id="SvgjsTspan1176" x="242.114" dy="16"><tspan id="SvgjsTspan1177">securityManager.checkIn</tspan></tspan></text></g><g id="SvgjsG1178" transform="translate(295.12053862118864,25.00002670288086)"><path id="SvgjsPath1179" fill="#fff" fill-opacity="1" stroke="#323232" stroke-width="2" d="M 0 57.2701222520099L 114.53218047052306 0L 229.06436094104612 57.2701222520099L 114.53218047052306 114.5402445040198L 0 57.2701222520099Z"/><g id="SvgjsG1180"><text id="SvgjsText1181" width="107" y="31.32" fill="#323232" align="middle" anchor="middle" family="微软雅黑" font-family="微软雅黑" font-size="13" font-weight="400" size="13" text-anchor="middle" transform="rotate(0)" weight="400"><tspan id="SvgjsTspan1182" x="115" dy="16"><tspan id="SvgjsTspan1183">请求资源是否属于</tspan></tspan><tspan id="SvgjsTspan1184" x="115" dy="16"><tspan id="SvgjsTspan1185">pathRoleMatcher</tspan></tspan><tspan id="SvgjsTspan1186" x="115" dy="16"><tspan id="SvgjsTspan1187">排除过滤链</tspan></tspan></text></g></g><g id="SvgjsG1188" transform="translate(606.5647575944176,160.3337007486944)"><path id="SvgjsPath1189" fill="#fff" fill-opacity="1" stroke="#323232" stroke-width="2" d="M 17.513800079694377 0L 94.5163715157522 0C 117.8681049553447 0 117.8681049553447 52.54140023908313 94.5163715157522 52.54140023908313L 17.513800079694377 52.54140023908313C -5.837933359898126 52.54140023908313 -5.837933359898126 0 17.513800079694377 0Z"/><g id="SvgjsG1190"><text id="SvgjsText1191" width="52" y="8.321" fill="#323232" align="middle" anchor="middle" family="微软雅黑" font-family="微软雅黑" font-size="13" font-weight="400" size="13" text-anchor="middle" transform="rotate(0)" weight="400"><tspan id="SvgjsTspan1192" x="56.5" dy="16"><tspan id="SvgjsTspan1193">正常通过</tspan></tspan><tspan id="SvgjsTspan1194" x="56.5" dy="16"><tspan id="SvgjsTspan1195">进入内部</tspan></tspan></text></g></g><g id="SvgjsG1196"><path id="SvgjsPath1197" fill="none" stroke="#323232" stroke-width="2" marker-end="url(#SvgjsMarker1198)" d="M524.1848995622349 82.27014895489076L565.3748285783263 82.27014895489076L565.3748285783263 186.60440086823598L606.5647575944176 186.60440086823598"/><rect id="SvgjsRect1200" width="26" height="16" x="552.375" y="126.437" fill="#fff"/><text id="SvgjsText1201" width="25" y="124.487" fill="#323232" align="top" anchor="middle" family="微软雅黑" font-family="微软雅黑" font-size="13" font-weight="400" size="13" text-anchor="middle" transform="rotate(0)" weight="400"><tspan id="SvgjsTspan1202" x="565.375" dy="16"><tspan id="SvgjsTspan1203">true</tspan></tspan></text></g><g id="SvgjsG1204" transform="translate(286.848978473114,187.77459269609614)"><path id="SvgjsPath1205" fill="#fff" fill-opacity="1" stroke="#323232" stroke-width="2" d="M 0 0L 245.60748123719551 0L 245.60748123719551 75.65961634427971L 0 75.65961634427971Z"/><g id="SvgjsG1206"><text id="SvgjsText1207" width="183" y="11.88" fill="#323232" align="middle" anchor="middle" family="微软雅黑" font-family="微软雅黑" font-size="13" font-weight="400" size="13" text-anchor="middle" transform="rotate(0)" weight="400"><tspan id="SvgjsTspan1208" x="123" dy="16"><tspan id="SvgjsTspan1209">根据request创建subject list</tspan></tspan><tspan id="SvgjsTspan1210" x="123" dy="16"><tspan id="SvgjsTspan1211">subjectFactory.createSubjects</tspan></tspan><tspan id="SvgjsTspan1212" x="123" dy="16"><tspan id="SvgjsTspan1213">之后对subject list循环处理</tspan></tspan></text></g></g><g id="SvgjsG1214"><path id="SvgjsPath1215" fill="none" stroke="#323232" stroke-width="2" marker-end="url(#SvgjsMarker1216)" d="M409.6527190917117 139.54027120690063L409.6527190917117 163.65743195149838L409.6527190917119 163.65743195149838L409.6527190917119 187.77459269609614"/><rect id="SvgjsRect1218" width="29" height="16" x="395.153" y="155.657" fill="#fff"/><text id="SvgjsText1219" width="29" y="153.707" fill="#323232" align="top" anchor="middle" family="微软雅黑" font-family="微软雅黑" font-size="13" font-weight="400" size="13" text-anchor="middle" transform="rotate(0)" weight="400"><tspan id="SvgjsTspan1220" x="409.653" dy="16"><tspan id="SvgjsTspan1221">false</tspan></tspan></text></g><g id="SvgjsG1222"><path id="SvgjsPath1223" fill="none" stroke="#323232" stroke-width="2" marker-end="url(#SvgjsMarker1224)" d="M409.6527190917119 263.4342090403759L409.6527190917119 285.86701751644375L409.6813157598051 285.86701751644375L409.6813157598051 308.2998259925116"/></g><g id="SvgjsG1226" transform="translate(25.002371924768966,308.2998259925116)"><path id="SvgjsPath1227" fill="#fff" fill-opacity="1" stroke="#323232" stroke-width="2" d="M 0 0L 769.3578876700722 0L 769.3578876700722 283.0930660916162L 0 283.0930660916162L 0 0ZM 20 0L 20 283.0930660916162M 749.3578876700722 0L 749.3578876700722 283.0930660916162"/></g><g id="SvgjsG1230" transform="translate(66.76163505405805,356.63791421246805)"><path id="SvgjsPath1231" fill="#fff" fill-opacity="1" stroke="#323232" stroke-width="2" d="M 77.86096925883538 73.55796033471638C -25.95365641961179 73.55796033471638 -25.95365641961179 0 77.86096925883538 0C 181.67559493728254 0 181.67559493728254 73.55796033471638 77.86096925883538 73.55796033471638L 155.72193851767076 73.55796033471638Z"/><g id="SvgjsG1232"><text id="SvgjsText1233" width="105" y="10.829" fill="#323232" align="middle" anchor="middle" family="微软雅黑" font-family="微软雅黑" font-size="13" font-weight="400" size="13" text-anchor="middle" transform="rotate(0)" weight="400"><tspan id="SvgjsTspan1234" x="78" dy="16"><tspan id="SvgjsTspan1235">JwtSubject</tspan></tspan><tspan id="SvgjsTspan1236" x="78" dy="16"><tspan id="SvgjsTspan1237">PasswordSubject</tspan></tspan><tspan id="SvgjsTspan1238" x="78" dy="16"><tspan id="SvgjsTspan1239">....</tspan></tspan></text></g></g><g id="SvgjsG1240"><path id="SvgjsPath1241" fill="none" stroke="#323232" stroke-width="2" marker-end="url(#SvgjsMarker1242)" d="M222.4835735717288 393.4168943798262L249.37081475463583 393.4168943798262L249.37081475463583 393.4168943798262L276.25805593754285 393.4168943798262"/></g><g id="SvgjsG1244" transform="translate(276.25805593754285,335.41118771416035)"><path id="SvgjsPath1245" fill="#fff" fill-opacity="1" stroke="#323232" stroke-width="2" d="M 0 0L 224.20972017191008 0L 224.20972017191008 116.01141333133185L 0 116.01141333133185Z"/><g id="SvgjsG1246"><text id="SvgjsText1247" width="198" y="32.056" fill="#323232" align="middle" anchor="middle" family="微软雅黑" font-family="微软雅黑" font-size="13" font-weight="400" size="13" text-anchor="middle" transform="rotate(0)" weight="400"><tspan id="SvgjsTspan1248" x="112.5" dy="16"><tspan id="SvgjsTspan1249">通过pathRoleMatcher匹配对应请</tspan></tspan><tspan id="SvgjsTspan1250" x="112.5" dy="16"><tspan id="SvgjsTspan1251">求路径所支持角色</tspan></tspan><tspan id="SvgjsTspan1252" x="112.5" dy="16"><tspan id="SvgjsTspan1253">放入subject的supportRole</tspan></tspan></text></g></g><g id="SvgjsG1254" transform="translate(585.532443055446,359.05481782174775)"><path id="SvgjsPath1255" fill="#fff" fill-opacity="1" stroke="#323232" stroke-width="2" d="M 0 0L 138.24055207253178 0L 138.24055207253178 68.72415311615703L 0 68.72415311615703Z"/><g id="SvgjsG1256"><text id="SvgjsText1257" width="102" y="16.412" fill="#323232" align="middle" anchor="middle" family="微软雅黑" font-family="微软雅黑" font-size="13" font-weight="400" size="13" text-anchor="middle" transform="rotate(0)" weight="400"><tspan id="SvgjsTspan1258" x="69.5" dy="16"><tspan id="SvgjsTspan1259">(1)进入Process链</tspan></tspan><tspan id="SvgjsTspan1260" x="69.5" dy="16"><tspan id="SvgjsTspan1261">子流程处理</tspan></tspan></text></g></g><g id="SvgjsG1262"><path id="SvgjsPath1263" fill="none" stroke="#323232" stroke-width="2" marker-end="url(#SvgjsMarker1264)" d="M500.46777610945287 393.4168943798262L543.0001095824495 393.4168943798262L543.0001095824495 393.41689437982626L585.532443055446 393.41689437982626"/></g><g id="SvgjsG1266" transform="translate(586.2769744468471,478.95429557248985)"><path id="SvgjsPath1267" fill="#fff" fill-opacity="1" stroke="#323232" stroke-width="2" d="M 0 36.77898016735819L 68.37574464486477 0L 136.75148928972953 36.77898016735819L 68.37574464486477 73.55796033471638L 0 36.77898016735819Z"/><g id="SvgjsG1268"><text id="SvgjsText1269" width="85" y="26.829" fill="#323232" align="middle" anchor="middle" family="微软雅黑" font-family="微软雅黑" font-size="13" font-weight="400" size="13" text-anchor="middle" transform="rotate(0)" weight="400"><tspan id="SvgjsTspan1270" x="68.5" dy="16"><tspan id="SvgjsTspan1271">认证鉴权成功?</tspan></tspan></text></g></g><g id="SvgjsG1272"><path id="SvgjsPath1273" fill="none" stroke="#323232" stroke-width="2" marker-end="url(#SvgjsMarker1274)" d="M723.0284637365767 515.7332757398481L753.0284637365767 515.7332757398481L753.0284637365767 242.8751009877776L662.579843392141 242.8751009877776L662.579843392141 212.87510098777764"/><rect id="SvgjsRect1276" width="26" height="16" x="740.028" y="326.08" fill="#fff"/><text id="SvgjsText1277" width="25" y="324.13" fill="#323232" align="top" anchor="middle" family="微软雅黑" font-family="微软雅黑" font-size="13" font-weight="400" size="13" text-anchor="middle" transform="rotate(0)" weight="400"><tspan id="SvgjsTspan1278" x="753.028" dy="16"><tspan id="SvgjsTspan1279">true</tspan></tspan></text></g><g id="SvgjsG1280" transform="translate(363.71628681972334,478.95429557248985)"><path id="SvgjsPath1281" fill="#fff" fill-opacity="1" stroke="#323232" stroke-width="2" d="M 0 36.77898016735819L 68.37574464486477 0L 136.75148928972953 36.77898016735819L 68.37574464486477 73.55796033471638L 0 36.77898016735819Z"/><g id="SvgjsG1282"><text id="SvgjsText1283" width="52" y="18.829" fill="#323232" align="middle" anchor="middle" family="微软雅黑" font-family="微软雅黑" font-size="13" font-weight="400" size="13" text-anchor="middle" transform="rotate(0)" weight="400"><tspan id="SvgjsTspan1284" x="68.5" dy="16"><tspan id="SvgjsTspan1285">最后一个</tspan></tspan><tspan id="SvgjsTspan1286" x="68.5" dy="16"><tspan id="SvgjsTspan1287">subject?</tspan></tspan></text></g></g><g id="SvgjsG1288"><path id="SvgjsPath1289" fill="none" stroke="#323232" stroke-width="2" marker-end="url(#SvgjsMarker1290)" d="M586.2769744468471 515.7332757398481L543.37237527815 515.7332757398481L543.37237527815 515.7332757398481L500.46777610945287 515.7332757398481"/><rect id="SvgjsRect1292" width="29" height="16" x="528.872" y="507.733" fill="#fff"/><text id="SvgjsText1293" width="29" y="505.783" fill="#323232" align="top" anchor="middle" family="微软雅黑" font-family="微软雅黑" font-size="13" font-weight="400" size="13" text-anchor="middle" transform="rotate(0)" weight="400"><tspan id="SvgjsTspan1294" x="543.372" dy="16"><tspan id="SvgjsTspan1295">false</tspan></tspan></text></g><g id="SvgjsG1296"><path id="SvgjsPath1297" fill="none" stroke="#323232" stroke-width="2" marker-end="url(#SvgjsMarker1298)" d="M363.71628681972334 515.7332757398481L144.62260431289343 515.7332757398481L144.62260431289343 430.19587454718436"/><rect id="SvgjsRect1300" width="29" height="16" x="196.901" y="507.733" fill="#fff"/><text id="SvgjsText1301" width="29" y="505.783" fill="#323232" align="top" anchor="middle" family="微软雅黑" font-family="微软雅黑" font-size="13" font-weight="400" size="13" text-anchor="middle" transform="rotate(0)" weight="400"><tspan id="SvgjsTspan1302" x="211.401" dy="16"><tspan id="SvgjsTspan1303">false</tspan></tspan></text></g><g id="SvgjsG1304" transform="translate(376.07694566686496,611.3586241749794)"><path id="SvgjsPath1305" fill="#fff" fill-opacity="1" stroke="#323232" stroke-width="2" d="M 17.513800079694377 0L 94.5163715157522 0C 117.8681049553447 0 117.8681049553447 52.54140023908313 94.5163715157522 52.54140023908313L 17.513800079694377 52.54140023908313C -5.837933359898126 52.54140023908313 -5.837933359898126 0 17.513800079694377 0Z"/><g id="SvgjsG1306"><text id="SvgjsText1307" width="78" y="8.321" fill="#323232" align="middle" anchor="middle" family="微软雅黑" font-family="微软雅黑" font-size="13" font-weight="400" size="13" text-anchor="middle" transform="rotate(0)" weight="400"><tspan id="SvgjsTspan1308" x="56.5" dy="16"><tspan id="SvgjsTspan1309">认证授权失败</tspan></tspan><tspan id="SvgjsTspan1310" x="56.5" dy="16"><tspan id="SvgjsTspan1311">解析抛出异常</tspan></tspan></text></g></g><g id="SvgjsG1312"><path id="SvgjsPath1313" fill="none" stroke="#323232" stroke-width="2" marker-end="url(#SvgjsMarker1314)" d="M432.09203146458833 552.5122559072063L432.09203146458833 581.9354400410928L432.0920314645882 581.9354400410928L432.0920314645882 611.3586241749794"/><rect id="SvgjsRect1316" width="26" height="16" x="419.092" y="573.935" fill="#fff"/><text id="SvgjsText1317" width="25" y="571.985" fill="#323232" align="top" anchor="middle" family="微软雅黑" font-family="微软雅黑" font-size="13" font-weight="400" size="13" text-anchor="middle" transform="rotate(0)" weight="400"><tspan id="SvgjsTspan1318" x="432.092" dy="16"><tspan id="SvgjsTspan1319">true</tspan></tspan></text></g><g id="SvgjsG1320"><path id="SvgjsPath1321" fill="none" stroke="#323232" stroke-width="2" marker-end="url(#SvgjsMarker1322)" d="M654.6527190917119 427.7789709379048L654.6527190917119 453.3666332551973L654.6527190917119 453.3666332551973L654.6527190917119 478.95429557248985"/></g><g id="SvgjsG1324" transform="translate(308.13214435031864,1290.9666926066088)"><path id="SvgjsPath1325" fill="#fff" fill-opacity="1" stroke="#323232" stroke-width="2" d="M 0 0L 203.04114948278618 0L 203.04114948278618 83.45015366197816L 0 83.45015366197816Z"/><g id="SvgjsG1326"><text id="SvgjsText1327" width="154" y="7.775" fill="#323232" align="middle" anchor="middle" family="微软雅黑" font-family="微软雅黑" font-size="13" font-weight="400" size="13" text-anchor="middle" transform="rotate(0)" weight="400"><tspan id="SvgjsTspan1328" x="102" dy="16"><tspan id="SvgjsTspan1329">(2)特定subject进入特定的</tspan></tspan><tspan id="SvgjsTspan1330" x="102" dy="16"><tspan id="SvgjsTspan1331">processor处理子流程</tspan></tspan><tspan id="SvgjsTspan1332" x="102" dy="16"><tspan id="SvgjsTspan1333">eg:PasswordSubject 进入</tspan></tspan><tspan id="SvgjsTspan1334" x="102" dy="16"><tspan id="SvgjsTspan1335">PasswordProcessor</tspan></tspan></text></g></g><g id="SvgjsG1336"><path id="SvgjsPath1337" fill="none" stroke="#323232" stroke-width="2" marker-end="url(#SvgjsMarker1338)" d="M409.652719091712 1374.416846268587L409.652719091712 1394.0383658789003L409.6527190917118 1394.0383658789003L409.6527190917118 1413.6598854892136"/></g><g id="SvgjsG1340" transform="translate(215.65849743726932,1436.3001004241896)"><path id="SvgjsPath1341" fill="#fff" fill-opacity="1" stroke="#323232" stroke-width="2" d="M 16.31293979010562 0L 97.87763874063371 0C 81.5646989505281 0 81.5646989505281 52.324052294168865 97.87763874063371 52.324052294168865L 16.31293979010562 52.324052294168865C -5.757508161213748 52.324052294168865 -5.757508161213748 0 13.98251982009053 0Z"/><g id="SvgjsG1342"><text id="SvgjsText1343" width="52" y="8.212" fill="#323232" align="middle" anchor="middle" family="微软雅黑" font-family="微软雅黑" font-size="13" font-weight="400" size="13" text-anchor="middle" transform="rotate(0)" weight="400"><tspan id="SvgjsTspan1344" x="46.788" dy="16"><tspan id="SvgjsTspan1345">账户信息</tspan></tspan><tspan id="SvgjsTspan1346" x="46.788" dy="16"><tspan id="SvgjsTspan1347">Provider</tspan></tspan></text></g></g><g id="SvgjsG1348" transform="translate(138.49205599054602,1567.6133470470568)"><path id="SvgjsPath1349" fill="#fff" fill-opacity="1" stroke="#323232" stroke-width="2" d="M 0 35.2181121210752L 60.43787404687883 0L 120.87574809375766 35.2181121210752L 60.43787404687883 70.4362242421504L 0 35.2181121210752Z"/><g id="SvgjsG1350"><text id="SvgjsText1351" width="93" y="25.268" fill="#323232" align="middle" anchor="middle" family="微软雅黑" font-family="微软雅黑" font-size="13" font-weight="400" size="13" text-anchor="middle" transform="rotate(0)" weight="400"><tspan id="SvgjsTspan1352" x="60.5" dy="16"><tspan id="SvgjsTspan1353">authenticated?</tspan></tspan></text></g></g><g id="SvgjsG1354" transform="translate(71.48595459680911,1437.3063321990776)"><path id="SvgjsPath1355" fill="#fff" fill-opacity="1" stroke="#323232" stroke-width="2" d="M 16.770529581464377 0L 86.31578025505392 0C 108.67648636367309 0 108.67648636367309 50.311588744393134 86.31578025505392 50.311588744393134L 16.770529581464377 50.311588744393134C -5.590176527154792 50.311588744393134 -5.590176527154792 0 16.770529581464377 0Z"/><g id="SvgjsG1356"><text id="SvgjsText1357" width="83" y="7.206" fill="#323232" align="middle" anchor="middle" family="微软雅黑" font-family="微软雅黑" font-size="13" font-weight="400" size="13" text-anchor="middle" transform="rotate(0)" weight="400"><tspan id="SvgjsTspan1358" x="52" dy="16"><tspan id="SvgjsTspan1359">subject中的账</tspan></tspan><tspan id="SvgjsTspan1360" x="52" dy="16"><tspan id="SvgjsTspan1361">户信息</tspan></tspan></text></g></g><g id="SvgjsG1362"><path id="SvgjsPath1363" fill="none" stroke="#323232" stroke-width="2" marker-end="url(#SvgjsMarker1364)" d="M264.59731680758625 1488.6241527183586L264.59731680758625 1528.1187498827076L198.92993003742487 1528.1187498827076L198.92993003742487 1567.6133470470568"/></g><g id="SvgjsG1366"><path id="SvgjsPath1367" fill="none" stroke="#323232" stroke-width="2" marker-end="url(#SvgjsMarker1368)" d="M123.02910951506828 1487.6179209434708L123.02910951506828 1527.6156339952638L198.92993003742487 1527.6156339952638L198.92993003742487 1567.6133470470568"/></g><g id="SvgjsG1370" transform="translate(289.6423597545563,1748.869233834299)"><path id="SvgjsPath1371" fill="#fff" fill-opacity="1" stroke="#323232" stroke-width="2" d="M 0 0L 112.10635801478276 0L 112.10635801478276 48.03079057976346L 0 48.03079057976346Z"/><g id="SvgjsG1372"><text id="SvgjsText1373" width="78" y="6.065" fill="#323232" align="middle" anchor="middle" family="微软雅黑" font-family="微软雅黑" font-size="13" font-weight="400" size="13" text-anchor="middle" transform="rotate(0)" weight="400"><tspan id="SvgjsTspan1374" x="56.5" dy="16"><tspan id="SvgjsTspan1375">认证授权失败</tspan></tspan><tspan id="SvgjsTspan1376" x="56.5" dy="16"><tspan id="SvgjsTspan1377">抛出对应异常</tspan></tspan></text></g></g><g id="SvgjsG1378"><path id="SvgjsPath1379" fill="none" stroke="#323232" stroke-width="2" marker-end="url(#SvgjsMarker1380)" d="M198.92993003742487 1638.0495712892073L198.92993003742487 1693.459402561753L345.69553876194766 1693.459402561753L345.69553876194766 1748.869233834299"/><rect id="SvgjsRect1382" width="29" height="16" x="257.813" y="1685.459" fill="#fff"/><text id="SvgjsText1383" width="29" y="1683.509" fill="#323232" align="top" anchor="middle" family="微软雅黑" font-family="微软雅黑" font-size="13" font-weight="400" size="13" text-anchor="middle" transform="rotate(0)" weight="400"><tspan id="SvgjsTspan1384" x="272.313" dy="16"><tspan id="SvgjsTspan1385">false</tspan></tspan></text></g><g id="SvgjsG1386" transform="translate(495.93095565521116,1567.6133470470568)"><path id="SvgjsPath1387" fill="#fff" fill-opacity="1" stroke="#323232" stroke-width="2" d="M 0 35.2181121210752L 60.43787404687883 0L 120.87574809375766 35.2181121210752L 60.43787404687883 70.4362242421504L 0 35.2181121210752Z"/><g id="SvgjsG1388"><text id="SvgjsText1389" width="93" y="25.268" fill="#323232" align="middle" anchor="middle" family="微软雅黑" font-family="微软雅黑" font-size="13" font-weight="400" size="13" text-anchor="middle" transform="rotate(0)" weight="400"><tspan id="SvgjsTspan1390" x="60.5" dy="16"><tspan id="SvgjsTspan1391">authenticated?</tspan></tspan></text></g></g><g id="SvgjsG1392"><path id="SvgjsPath1393" fill="none" stroke="#323232" stroke-width="2" marker-end="url(#SvgjsMarker1394)" d="M259.36780408430366 1602.831459168132L377.64937986975747 1602.831459168132L377.64937986975747 1602.831459168132L495.93095565521116 1602.831459168132"/><rect id="SvgjsRect1396" width="26" height="16" x="364.649" y="1594.831" fill="#fff"/><text id="SvgjsText1397" width="25" y="1592.881" fill="#323232" align="top" anchor="middle" family="微软雅黑" font-family="微软雅黑" font-size="13" font-weight="400" size="13" text-anchor="middle" transform="rotate(0)" weight="400"><tspan id="SvgjsTspan1398" x="377.649" dy="16"><tspan id="SvgjsTspan1399">true</tspan></tspan></text></g><g id="SvgjsG1400" transform="translate(409.2946488800453,1435.1261633534868)"><path id="SvgjsPath1401" fill="#fff" fill-opacity="1" stroke="#323232" stroke-width="2" d="M 18.22397547852483 0L 90.66407235848352 0C 114.96270632984996 0 114.96270632984996 54.67192643557449 90.66407235848352 54.67192643557449L 18.22397547852483 54.67192643557449C -6.0746584928416105 54.67192643557449 -6.0746584928416105 0 18.22397547852483 0Z"/><g id="SvgjsG1402"><text id="SvgjsText1403" width="84" y="9.386" fill="#323232" align="middle" anchor="middle" family="微软雅黑" font-family="微软雅黑" font-size="13" font-weight="400" size="13" text-anchor="middle" transform="rotate(0)" weight="400"><tspan id="SvgjsTspan1404" x="54.5" dy="16"><tspan id="SvgjsTspan1405">subject中的所</tspan></tspan><tspan id="SvgjsTspan1406" x="54.5" dy="16"><tspan id="SvgjsTspan1407">拥有角色</tspan></tspan></text></g></g><g id="SvgjsG1408"><path id="SvgjsPath1409" fill="none" stroke="#323232" stroke-width="2" marker-end="url(#SvgjsMarker1410)" d="M463.7386727985496 1489.7980897890614L463.7386727985496 1528.705718418059L556.3688297020899 1528.705718418059L556.3688297020899 1567.6133470470568"/></g><g id="SvgjsG1412" transform="translate(595.2685762596872,1435.1261633534868)"><path id="SvgjsPath1413" fill="#fff" fill-opacity="1" stroke="#323232" stroke-width="2" d="M 18.22397547852483 0L 105.10237745165222 0C 129.40101142301867 0 129.40101142301867 54.67192643557449 105.10237745165222 54.67192643557449L 18.22397547852483 54.67192643557449C -6.0746584928416105 54.67192643557449 -6.0746584928416105 0 18.22397547852483 0Z"/><g id="SvgjsG1414"><text id="SvgjsText1415" width="97" y="9.386" fill="#323232" align="middle" anchor="middle" family="微软雅黑" font-family="微软雅黑" font-size="13" font-weight="400" size="13" text-anchor="middle" transform="rotate(0)" weight="400"><tspan id="SvgjsTspan1416" x="62" dy="16"><tspan id="SvgjsTspan1417">subject中的访问</tspan></tspan><tspan id="SvgjsTspan1418" x="62" dy="16"><tspan id="SvgjsTspan1419">资源所支持角色</tspan></tspan></text></g></g><g id="SvgjsG1420"><path id="SvgjsPath1421" fill="none" stroke="#323232" stroke-width="2" marker-end="url(#SvgjsMarker1422)" d="M656.9317527247757 1489.7980897890614L656.9317527247757 1528.705718418059L556.36882970209 1528.705718418059L556.36882970209 1567.6133470470568"/></g><g id="SvgjsG1424"><path id="SvgjsPath1425" fill="none" stroke="#323232" stroke-width="2" marker-end="url(#SvgjsMarker1426)" d="M556.36882970209 1638.0495712892073L556.36882970209 1693.459402561753L345.69553876194766 1693.459402561753L345.69553876194766 1748.869233834299"/><rect id="SvgjsRect1428" width="29" height="16" x="436.532" y="1685.459" fill="#fff"/><text id="SvgjsText1429" width="29" y="1683.509" fill="#323232" align="top" anchor="middle" family="微软雅黑" font-family="微软雅黑" font-size="13" font-weight="400" size="13" text-anchor="middle" transform="rotate(0)" weight="400"><tspan id="SvgjsTspan1430" x="451.032" dy="16"><tspan id="SvgjsTspan1431">flase</tspan></tspan></text></g><g id="SvgjsG1432" transform="translate(597.5646870292965,1749.875465609187)"><path id="SvgjsPath1433" fill="#fff" fill-opacity="1" stroke="#323232" stroke-width="2" d="M 0 0L 105.97274538760766 0L 105.97274538760766 46.01832702998751L 0 46.01832702998751Z"/><g id="SvgjsG1434"><text id="SvgjsText1435" width="78" y="13.059" fill="#323232" align="middle" anchor="middle" family="微软雅黑" font-family="微软雅黑" font-size="13" font-weight="400" size="13" text-anchor="middle" transform="rotate(0)" weight="400"><tspan id="SvgjsTspan1436" x="53" dy="16"><tspan id="SvgjsTspan1437">认证授权成功</tspan></tspan></text></g></g><g id="SvgjsG1438"><path id="SvgjsPath1439" fill="none" stroke="#323232" stroke-width="2" marker-end="url(#SvgjsMarker1440)" d="M616.8067037489689 1602.831459168132L650.5510597231003 1602.831459168132L650.5510597231003 1749.875465609187"/><rect id="SvgjsRect1442" width="26" height="16" x="637.551" y="1651.481" fill="#fff"/><text id="SvgjsText1443" width="25" y="1649.531" fill="#323232" align="top" anchor="middle" family="微软雅黑" font-family="微软雅黑" font-size="13" font-weight="400" size="13" text-anchor="middle" transform="rotate(0)" weight="400"><tspan id="SvgjsTspan1444" x="650.551" dy="16"><tspan id="SvgjsTspan1445">true</tspan></tspan></text></g><g id="SvgjsG1446" transform="translate(535.3602595948412,1805.5)"><path id="SvgjsPath1447" fill="none" stroke="none" d="M 0 0L 259 0L 259 24L 0 24Z"/><g id="SvgjsG1448"><text id="SvgjsText1449" width="198" y="2.05" fill="#323232" align="middle" anchor="middle" family="微软雅黑" font-family="微软雅黑" font-size="13" font-weight="400" size="13" text-anchor="middle" transform="rotate(0)" weight="400"><tspan id="SvgjsTspan1450" x="129.5" dy="16"><tspan id="SvgjsTspan1451">power by tomsun28(usthe.com)</tspan></tspan></text></g></g></svg>